<?xml version="1.0" encoding="iso-8859-1"?>
<!-- Generator: Adobe Illustrator 16.0.0, SVG Export Plug-In . SVG Version: 6.00 Build 0)  -->
<!DOCTYPE svg PUBLIC "-//W3C//DTD SVG 1.1//EN" "http://www.w3.org/Graphics/SVG/1.1/DTD/svg11.dtd">
<svg version="1.1" id="Capa_1" xmlns="http://www.w3.org/2000/svg" xmlns:xlink="http://www.w3.org/1999/xlink" x="0px" y="0px"
	 width="32" height="32" viewBox="0 0 31.816 31.816" style="enable-background:new 0 0 31.816 31.816;"
	 xml:space="preserve">
<g>
	<path style="fill:#880000" d="M30.922,9.343c0.562-0.525,0.885-1.259,0.895-2.028c0.008-0.77-0.301-1.51-0.852-2.048L27.143,1.53
		c-0.535-0.523-1.256-0.812-2.006-0.803c-0.748,0.009-1.461,0.314-1.982,0.85l-7.197,7.377L8.862,1.562
		C8.303,0.979,7.537,0.643,6.73,0.627C5.923,0.61,5.142,0.916,4.561,1.475l-3.695,3.55C0.31,5.558-0.002,6.294,0,7.065
		c0.002,0.77,0.318,1.505,0.876,2.036l7.746,7.368l-6.858,7.028c-1.046,1.071-1.071,2.774-0.058,3.879l2.67,2.901
		c0.509,0.556,1.218,0.881,1.97,0.909c0.751,0.028,1.483-0.244,2.032-0.759l7.522-7.035l7.339,6.98
		c0.545,0.519,1.272,0.797,2.024,0.772c0.752-0.021,1.463-0.344,1.979-0.895l2.691-2.877c1.022-1.097,1.014-2.8-0.023-3.88
		l-6.68-6.964L30.922,9.343z"/>
</g>
</svg>
