<?xml version="1.0" encoding="UTF-8" standalone="no"?>
<!-- Created with Inkscape (http://www.inkscape.org/) -->
<svg xmlns:rdf="http://www.w3.org/1999/02/22-rdf-syntax-ns#" xmlns="http://www.w3.org/2000/svg" xmlns:cc="http://web.resource.org/cc/" xmlns:dc="http://purl.org/dc/elements/1.1/" xmlns:svg="http://www.w3.org/2000/svg" xmlns:inkscape="http://www.inkscape.org/namespaces/inkscape" xmlns:sodipodi="http://sodipodi.sourceforge.net/DTD/sodipodi-0.dtd" xmlns:ns1="http://sozi.baierouge.fr" xmlns:xlink="http://www.w3.org/1999/xlink" id="svg2" xml:space="preserve" version="1.0" viewBox="0 0 542.934 289.328" inkscape:version="0.91 r13725">
		<g id="Layer_1">
			<path id="path7" style="fill-rule:evenodd;fill:#231f20" d="m519.94 227.5c-10.48 2.79-17.32-3.89-21.41-11.76-0.36-1.86-0.92-3.86-1.69-4.66 0.14-0.19 0.37-0.44 0.61-0.68-2.42-4.64 6.03-17.59 8.93-21.74-0.74-1.42-3.68-0.38-3.97-0.23-15.67 31.03-39.56 28.87-67.74 24-6.95-3.86-30.73-8.84-33.39-13.96-14.56-10.87-23.15-19.05-33.75-30.88-0.43 0.1-0.81 0.3-1.1 0.45-0.91 2.4-1.49 8.24-2.71 9.84-4.42 13.98-31.98 9.15-41.3 18.33-7.81 4.9-14.19 6.53-21.14 2.67-3.16 2.25-6.1 7.26-8.21 9.68-10.67 14.94-23.59 29-37.32 40.36-28.6 20.76-72.55 49.98-108.74 37.35-7.02 0.15-29.26-9.49-35.81-12.35-14.061-3.89-26.488-15.98-39.484-15.73-24.359 7.36-39.59 30.94-61.621 5.76-9.31-10.65-12.603-25.07-8.101-42.95 4.497-17.88 24.965-31.33 33.592-5.46 0.341 3.68-0.624 12.24-5.657 11.37-4.482-8.63-2.34-18.42-14.727-9.57-6.07 9.17-6.252 19.02-1.941 28.95 0.146 0.04 0.288 0.09 0.436 0.13-0.367 1.16 3.68 6.16 5.044 7.86 10.885 8.44 20.127 6.28 29.263-5.57 19.931-28.94 51.243-11.47 58.036-8.84 21.72 7.26 44.85 7.05 68.39 2.52 10.11-4.65 20.09-10.56 29.43-18.3 7.68-6.7 20.5-24.98 28.64-36.2-3.11 1.71-5.74 2.55-7.61 3.96-3.97 2.51-32.78 13.73-43.95 15.55-2.67 0.52-30.92 2.59-35.71 1.82-23.32-5.71-36.7-15.08-49.575-34.53-11.949 6.21-18.809-7.69-26.829-6.89-4.645 2.41-0.989 22.43 5.36 24.91 1.15-2.89 0.517-6.65 0.284-9.42 9.316-15.68 25.6 26.32-3.661 25.87-24.499-7.74-22.634-29.19-24.142-49.24 6.909-23.1 16.167-24.06 38.685-17.57 5.388 2.26 5.388 2.26 5.674 2.11-1.28-20.77 17.304-30.67 34.764-36.01 0.34 0.67 12.79 1.67 14.42 2.02 11.57-2.76 32.33 19.81 30.91 32.6 0.14 0.28 0.29 0.57 0.44 0.85-4.14 13.12-4.82 16.23-15.43 25-2.94 1.53-9.07 3.87-11.62 5.92 0.82 0.66 12.67 3.29 14.51 1.49 11.96 3.78 53.97-30.33 61.15-42.01-7.41-3.13-16.01-5.54-22.04-9.02-17.89 8.45-28.6 1.97-37.96-13.04-2.63 0.05-5.89-0.43-7.08-0.17-0.44-0.86-10.53-4.29-12.27-5.31-14.85-10.956-22.93-26.746-1.78-37.732 11.7-3.435 24.25 7.27 5.37 10.336-13.37 6.946-0.39 21.036 11.65 14.778 0.41-1.296 0.05-6.405-0.2-7.357 0.18-0.097 0.37-0.196 0.56-0.295 3.92-18.656 14.12-23.355 33.23-20.879 8.44 4.409 16.87 8.818 25.35 13.324 7.89 12.163 32.37 18.951 47.26 20.726 4.55-2.843 7.84-9.252 12.73-11.432 0.46-1.441 6.45-6.123 8.29-7.92 10-12.059 20.05-26.314 28.97-39.742-2.53-15.542-3.93-26.018 15.6-29.905 3.11 0.19 9.73 0.229 13.55 1.633 4.98-5.717 12.98-7.948 20.2-10.499 5.04-0.131 9.23 1.429 12.69 4.729-0.23 0.719 1.03 1.751 1.82 2.792 30.97-12.689 64.69-17.866 86.6 20.636 18.29 4.946 9.43 27.479-5.6 47.468-10.66 19.302-47.35 16.739-47.25 15.163-0.05 0.143 27.31 56.506 29.43 63.836 1.68 3.22 2.81 5.16 6.53 7.92-1.08-2.73-5.39-10.74-6.12-12.47-7.37-17.35-11.21-52.869 22.84-52.457 5.91 1.657 13.27 1.497 17.79 6.177 15.93 10.5 25.88 32.19 27.52 51.81 0.15 0.29 0.3 0.58 0.59 0.9 10.71-2.56 34.26 8.7 34.49 23.27-2.56 10.61-8.98 18.64-19.21 21.67-3.42 1.77-7.41 3.36-9.19 5.73 1.23 2.37 8.67 3.93 12.5 10.37-1.91 3.52-3.68 6.36-7.09 8.14"/>
			<path id="path9" style="fill-rule:evenodd;fill:#ffffff" d="m516.44 223.54c-14.9-0.56-15.73-14.47-15.07-16.66 2.42-7.64 3.37-13.04 11.81-17.42 2.49 0.39 5.18 1.16 8.71 0.53-0.05-0.33-0.11-0.67-0.07-1.05-2.12-1.54-6.87-2.57-7.05-1.99-3.84-0.66-7.72-1.41-10.45-1.56-0.02-1.43 1.3-2.84 1.22-4.37 5.7-11.75-5.46-22.81 15-16.34 10.59 4.86 21.65 10.19 14.32 24.12-1.56 4.04-9.71 9.58-22.44 15.87-7.29 7.77 3.61 10.07 8.79 14 0.09 2.48-3.26 4.08-4.77 4.87"/>
			<path id="path11" style="fill-rule:evenodd;fill:#231f20" d="m530.27 184.8c-0.19-0.15-0.34-0.19-0.39-0.28 0.19-9.14-14.21-12.98-10.25-16.96 2.5 4.12 17.19 11.54 10.64 17.24"/>
			<path id="path13" style="fill-rule:evenodd;fill:#ffffff" d="m482.56 206.33c-2.24 0.08-3.21-0.62-4.22-1.17-0.85 0.44-10.91 8.67-11.06 1.89l-0.48 0.25c-2.36-1.54-1.8-2.08-4.04-2-6.24 10.47-13.34 0.07-17.16-0.11-10.3 8.23-15.37-4.54-19-4.1-10.98 7.05-10.02-7.69-15.75-7.6-1.73 5.48-11.58-0.97-11.67-7.18-2.43-4.66-11.34 2.53-11.53-9.67l-11.11-7.47c1.73-5.48-5.98-3.4-7.97-8.15 0.43-0.34 0.95-0.73 1.52-1.02 1.08-9.96-3.71-19.88-4.72-29.47 0.15 0.04 0.39 0.04 0.67 0.13-1.82-3.51 2.57-13.14-0.49-13.47-5.57 10.84-2.9 25.47-0.14 37.05 0.62 6.06-3.35 6.31-3.96 10-6.01 3.13-15.63 3.61-16.93 11.45-5.1 0.84-15.58-6.11-15.35 5.69-4.27 2.21-2.07 2.52-4.65 5.66-0.05-0.09-5.3 0.47-5.78 0.24-3.29 3.39-10.16 13.35-15.22 4.78 0.29-2.93-3.15-2.83-0.05-6.36-0.1-6.48-9.83 0.13-4.33-10.64 5.1-4.1-5.17-6.95 1.34-15.27-0.55-2-1.57-3.04-1.92-3.94 1.92-2.56 3.57-7.03 6.06-10.13 5.39 9-4.66 13.98 3.18 20.74-2.9 3.92-4.27 7.53 0.18 11.47-11.48 14.28 19.54 17.43 9.29-2.29-0.33 0.05-0.67 0.1-0.91 0.11-1.27 4.03 3.02 9.27-4.25 12.2-4.44-2.51-6.57-7.78-0.82-9.69-0.2-0.37-0.39-0.76-0.45-1.09-8.5-2.69 1.19-9.53 0.2-11.9-7.03-3.1-1.4-10.12-1.54-15.71-3.8-10.79-1.01-3.57-0.39-9.79 17.56-32.97-21.46-39.67-19.74-12.26-0.09 0.05-0.19 0.1-0.23 0.24-3.27-2.37-0.81-6.42-1.86-8.43 0.43-12.63 8.33-17.82 20.2-16.52 0.06 0.09 0.1 0.19 0.15 0.28 11.21-1.85 11.89 20.56 7.73 26.94-0.38 2.97 1.02 10.07-1.29 12.35 0.1-0.05 0.24 0 0.48-0.01-0.33 0.3-1.51 1.27-0.36 1.63l5.89 21.75c0.07 1.3 0.14 2.59 0.35 3.92 0.04-0.14 0.09-0.29 0.18-0.34 1.8 1.6 3.46 0.86 6.24 4.59 0.38-0.2 0.85-0.44 1.38-0.59-0.11-4.16-4.29-5.01-5.7-6.8 4.32-5.94 3.14-5.71 9.05-5.06 2.57-3.87-4.83-3.51 2.91-9.7-0.25-0.48-0.49-0.95-0.6-1.38-4.52 0.79-5.78 3.01-5.53 7.21-1.99 1.03-3.79 1.73-5.11 2.9-6.36-12.24-8.27-8.72-4.52-23.31-2.91-11.85 8.94-30.78-9.37-36.56-0.24-0.24-0.43-0.38-0.53-0.56-13 0.24-16.5-0.707-22.94 12.64-3.1 9.79 1.32 29.18 15.73 24.94 10.81-5.62 3.3-12.19 1.87-17.96-6.5-0.23-7.68 4-10.24 8.34-10.83-7.86 18.05-29.248 17.91-1.24-1.94 7.4-2.31 8.31-2.88 8.36-0.35 2.12-10.85 15.52-10.99 9.92-0.33-0.18-0.67-0.37-0.91-0.6-7.59 3.94-7.25-1.9-13.63-0.03-0.89-1.7-1.39-3.37-1.69-4.42-8.5-2.68-4.44-2.75-6.05-7.69-10.57-1.91-1.64-27.64 2.53-31.92 3.46-4.049 14.21-13.711 18.84-9.239 2.87-3.374 6.34-2.87 11.44-0.46-0.07 0.945 0.15 3.992 0.66 4.96 0.04-0.146 0.09-0.288 0.22-0.482 2.85 1.533 3.05 2.15 7.49 1.65 2.36 4.551 5.63 2.735 7.06 8.021 0.63 1.23 1.94 2.12 3.44 3.62-4.87 15.42 18.46 9.33 7.73-1.12-4.04-1.27-7.7-0.45-9.28-3.49 0.32-1.01 5.37-7.319 6.61-7.722 3.67 2.251 5.79 7.712 9.74 10.912 0.19-0.1 0.43-0.1 0.76-0.16 0.25 0.23 0.54 0.57 0.93 0.85-0.57 0.78 1.59 5.73 2.1 6.37 1.88 0.83 4.46 1.17 5.67 4.65-0.24 0-0.34 0.05-0.43 0.1 0.1 0.19 0.24 0.47 0.48 0.71-1.02 3.22-1.04 3.16 0.76 5.86-0.21 1.44-0.49 2.07-0.28 3.16-0.14-0.04-0.29-0.09-0.38-0.04 0.88 1.71-1.92 2.8-2.61 4.25 3.55 6.83-2.62 9.79-0.36 14.15-0.92 0.96-1.02 2.92-0.03 3.87-1.05 0.55-1.84 5.05-2.15 6.06-1.05 0.07-2.01 0.08-2.92 0.19 0.89 1.7 0.69 2.17 2.4 3.21l8.46-42.82c-9.25-19.88-29.19-35.536-51.1-33.902-0.24-0.234-0.34-0.425-0.44-0.615-0.14 0.192-0.23 0.482-0.23 0.722-23.51 0.414-41.28 25.545-34.26 47.185-3.8 1.25-9.69 6.61-5.77 9.51 2.67-1.39 0.62-7.3 6.53-6.65 5.72 11 11.86 15.39 24.76 17.97 0.59 1.13 0.48 2.08 0.91 3.38-5.88 3.05-18.89 14.39-24.23 9.22-4.14 1.54-1.56 7.19-10.95 5.81-0.66-1.26-0.24-2.04-1.2-3.23-5.31 2.76-6.8 8.23-14.71 4.38-3.41 1.78-3.94 4.46-7.78 6.1-3.91-2.15-4.31 10.4-13.88 5.76-2.26 1.18-3.73 14.32-10.63 7.58-6.64 3.44-5.81 7.59-14.67 3.52l-11.86 2.91c-0.43-0.14-0.81-0.18-1.19-0.22-7.72 14.01-15.26-1.03-17.56 2.14l-13.16 2.02c-4.08 5.61-8.85-0.58-11.02-1.27-5.08 2.04-5.44 0.43-7.68-2.5 0.95-3.03-10.18 0.58-9.42-6.31l-2.17-0.92c-5.43 0.89-6.59-2.48-8.45-5.61-4.75-1.02-4.21-0.46-6.42-3.77 0.09-0.29 0.33-0.53 0.57-0.77-1.63-3.13-5.1-4.7-6.98-8.78l-5.452-15.6c2.051-6.48 5.312-2.76 0.351-11.38l5.041-7.92c-3.533-2.62-1.03-7.54 2.68-8.98 0.57 0.18 1.43-0.26 2.52-0.71 0.04-0.62 0.22-1.43-0.17-1.71-0.13-8.13 5.58-4.11 11.11-7.82 1.14-3.61 3.77-3.65 7.43-1.94 3.7-1.92 6.05-4.11 9.89 0.04 4.98 0.54 7.45-2.18 11.13 3.98 6.45-3.36 6.57 5.73 12.65 6.55 2.31 1.21 8.16 11.53 8.5 14.97-4.5 5.47 2.39 9-5.97 12.62l-0.12 1.14c-0.19 0.11-0.29 0.15-0.38 0.2-4.21-5.7 1.71-5.36 2.21-9.94-4.08 2.12-3.91-8.44-3.83-9.21-0.53-0.33-1.06-0.65-1.49-1.03 0.29 0.57 0.02 1.44-0.36 1.87-3.88-1.23-3.19-10.47-6.9-7.49-5.85 1.96-3.56-4.06-6.12-5.98-0.94 0.59-3.13 1.44-3.11 2.58-5.43 1.62-10.01-18.28-17.37-3.01-2.64-0.44-5.9-1.15-5.86 1.47-3.79 1.97-2.25 2.62-2.19 6.44-3.23 1.68-5.78 0.48-6.96 4.22 0.14 0.05 0.33 0.19 0.53 0.33-2.1 3.38-0.94 4.46 1.27 8.25-2.09 1.08-4.05 0.78-5.44 0.66-2.44 2.47 0.58 9.69 2.49 12.67 0.1-0.05 0.53 0.09 0.54 0.57l-2.09 0.84 9.06 13.96c0.38-0.44 0.56-0.77 1.94-0.89 0.25 0.48 0.55 1.04 0.94 1.56 0.19-0.09 0.38-0.19 0.66-0.34 0.37 1.55 1.99 2.83 0.74 4.43-0.24 0.01-0.48 0.01-0.62-0.03-0.28 0.62-0.55 1.25-0.83 1.87 0.04 0.1 0.14 0.28 0.24 0.48 3.31 0.33 7.48-4.61 11.52 3.16-1.41 7.48 7.34-4.65 11.57 6.04 0.14 0.04 0.29 0.09 0.48 0.22 6.06-3.62 4.85-1.55 10.32 2.48 5.45-3.2 6.85-4.89 12.9 0.03 2.59 0.11 3.2-6.59 11.85-3.86 0.68 0.61 1.86 3.13 4.04 1.99 1.7-7.63 6.02-9.27 13.04-4.12 3.73-1.94 2.91-12.35 10.94-6.53 3.6-1.87 0.83-10.91 9.7-9.13 0.39 0.75 1.4 0.83 2.87 0.43-0.05-0.57-0.01-1.2 0.03-1.82-10.51-2.61-8.83 1.57-13.71 7.24-8.89-0.19-5.89 2.58-10.54 7.29-10.05-6.82-8.59 1.09-14.19 3.99l-14.07 1.9c-5.88-3.45-7.3-2.71-12.53-0.48-1.77-3.41-8.44-4.64-10.04-3.09-1.6-1.46-6.09-4.3-6.31-3.58l-3.65-0.52-0.42 0.58c-3.74-4.44-4.96-5.61-9.26-5.3-2.02-3.89-2.28-5.08-4.76-7.77 0.58-4.35 0.23-5.2-2.23-8.47 0.05-0.15 0.09-0.29 0.19-0.34-0.34 0.05-0.53 0.15-0.72 0.25-0.53-0.57-0.97-1.18-1.36-1.7 0.14 0.04 0.29 0.09 0.53 0.09-0.01-0.24-0.01-0.48 0.03-0.63 4.08-2.11 3.58-7.03 2.17-11.12 4.93-2.56 4.77-3.8 4.88-9.39-1.57-5.1 5.51-1.91 5.93-9.22 1.6-0.85 4.44-0.03 7.28-1.51 2.74 0.87 3.8 3.57 8.74 1 2.5 4.36 1.85 5.19 8.05 4.37 0.87 3.52 1.35 6.77 5.86 7.8-0.59 2.59-0.46 4.69 1.97 6.8-1.74 5.48-3.13 6.08 1.22 12.13-2.76 3.73-4.01 3.41-7.87 4.33-3.19 6.84-5.81 4.83-10.58 4.9-3.46 10.95-13.39-6.29-14.17-7.81 3.87-2.74 11.37-2.9 17.42-7.73l-15.26-13.14c-7.97 4.14-5.22 15.47-7.46 18.56 8.3 23.16 23.11 26.18 48.57 22.1 25.88-11.4 46.3-35.14 67.95-53.74 5.1-3.85 49.92-39.299 49.81-43.216 7.85-5.047 10.45-15.794 17.01-21.49 2.19-6.918 9.07-13.141 11.97-20.55-8.76-16.844 2.45-25.917 20.94-24.365 2.02 3.888-1.38 14.5-4.09 16.933 2.54 4.88 9.08-8.118 8.57-11.439-0.52-7.644 23.3-26.434 33.6-3.125-0.11 1.865 0.97 6.963-0.87 8.522 0.06 0.81-0.19 0.471 0.88 1.363 1.01-1.25 2.85-5.815 3.36-6.078 1.87 1.102 6.01 2.182 6.88 3.872-0.22 0.719-2.17 1.611-2.26 1.66-7.5-2.368-8.21 9.931-14.29 9.593-1-0.698-1.51-2.541-0.72-3.478-3.16-6.071-4.17 11.932 6.31 3.596 2.28-2.303 4.46-8.83 8.92-7.419 11.18-3.997-2.52-8.567-5.61-10.812-0.51-2.142-0.93-4.333-1.35-6.527 0.8-1.018 12.66-3.925 15.65-4.882 25.93-4.8 45.69 2.398 62.28 23.887 4.45 3.947 10.43 6.864 12.68 13.521-7.67 10.493-17.15 43.718-35.6 40.658-7.87 4.091-37.64-10.554-39.38-8.803 5.13 9.864 12.55 19.978 17.99 31.599-0.19 0.1 10.39 22.79 12.15 25.24-0.1 0.06-0.14 0.2-0.19 0.34-0.14-0.04-0.29-0.09-0.43-0.13 0.15 0.52 2.85 5.26 3.48 5.77-0.33 0.06-0.57 0.06-0.76 0.16 3.95 5.05 5.97 12.19 10.08 17.77-0.1 0.05-0.2 0.1-0.24 0.24-4.95-1.88-11.68-10.43-14.59-13.25-5.33 1.87 2.29 7.63 3.84 10.17-0.14 0.19-0.19 0.34-0.19 0.57 1.01-0.15 12.57 11.9 18.62 13.81 8.9 6.46 25.31 14.19 34.58 1.43 0.55-1.49 4.21-21.82 1.88-23.5-0.23-2.42-5.03-11.93-4.79-12.69-5.04-1.59-9.37-9.46-15.2-0.05-5.81 13.14 6.56 21.65 14.61 29.5-1.61 4.09-5.78 6.26-9.21 6.84-3.79-7.31-11.74-13.78-10.28-21.64-0.81-2.47-1.68-3.46-2.61-5.03 0.78-1.73 1.08-4.17 0.96-5.56 0.1-0.05 0.24 0 0.48 0-0.89-1.71-1.72-3.32-2.56-4.93 0.94-1.21 1.32-4.42 0.91-5.9 3.61-1.87 4.27-2.22 5.21-6.44 1.28-0.3 4.05-0.54 6.86-1.39 1.38 2.65 3.39 3.05 7.07 2.94 1.35 3.52 1.85 5.42 7.32 6.2 3.03 4.69 7.33 10.64 12.04 15.3l-0.86 3.45c-4.24 3.42-1.51 7.3 0.28 11.66-1.61 3.62-1.43 6.05-0.03 10.14-4.29 3.79-4.95 7.63-3.91 12.87-3.22 2.15-6.59 6.32-4.67 10.01 0.52-0.15 1.04-0.3 1.62-0.36 0.57-5.84 5.2-6.43 6.16-9.46-4.39-8.44 3.35-8.85 3.85-13.44-5.04-1.6-0.04-8.89 0.31-11-8.52-4.12 1-9.43-1.89-13.6 0.34-0.29 0.67-0.58 1.14-0.83-0.01-0.23-0.01-0.47 0.08-0.76-6.77-2.14-3.88-7.01-5.19-8.38-8.36-2.17-4.04-4.53-5.87-8.03-9.54 0.86-5.64-3.22-8.22-6.57-3.86 0.68-4.91 1.22-6.85-0.66-3.72-8.54-3.03 2.06-10.31-1.99-0.38 0.2-0.66 0.35-0.95 0.49-0.63 2.02-0.55 4.27-1.09 6.47-1.85 0.96-3.1 0.6-4.56 1.89 0.26 1.19 0.55 4.53-0.24 6.27l-0.62-0.28c-0.18 0.82-0.31 1.73-0.44 2.64 2.6 0.82 2.03 10.86 4.25 15.13-0.22 1.2-0.06 2.44-0.9 3.84 0.03 1.67 7.48 6.96 4.42 10.59 0 0 7.92 4.8 5.8 6.99-0.62-0.28-0.62-0.28-2.15-0.21-6.05-1.92-3.89-7.02-8.14-10.1-2.94 1.52-3.2-8.94-3.3-9.13-8.77-4.84-2.34-9.14-4.59-12.07-4.22-4.19-3.25-3.49-1.81-9.06 0.57-0.29 1.23-0.64 1.9-0.98 0.71-6.27-5.84-6.36 3.26-11.09-0.7-8.55 1.19-3.99 6.4-6.7-0.02-1.91-0.17-1.72 0.95-3.26-0.38-0.05-0.67-0.14-0.95-0.23 0.8-3.55 4.38-6.85 6.82-1.01 4.63-0.12 3.22-7.46 8.97 1.96 2.51 1.83 2.93-7.55 7.47 1.18 2.71 1.96 5.87-3.54 7.64 5.42 0.48 0.23 1.1 0.51 1.73 0.79 0.47-0.49 0.99-0.88 1.51-1.27 1.13 1.7 4.81 5.09 2.18 8.14 0.01 0.48 0.06 1.05 0.22 1.57 0.43 0.14 0.91 0.37 1.4 0.6l4.13 7.49c-0.43 0.58-0.75 1.11-1.03 1.74 2.63 2.97 8.15 4.32 5.3 11.58-2.45 2.72 3.16 3.77 2.91 9.32-0.47 0.25-1.73 5-3.34 6.08 5.04 1.59 5.71 11 0.31 13.81 2.24 3.51 0.9 11.87-5.13 14.46 1.79 10.87-7.11 7.19-9.24 11.67 0.09 2.24-1.37 3.37-2.37 4.24"/>
			<path id="path15" style="fill-rule:evenodd;fill:#231f20" d="m478.92 193.05c-5.68-2.35-11.5-4.74-13.87 2.75-0.52 0.15-1.05 0.31-1.42 0.5-2.59-3.11-12.56-7.93-12.42-2.1-0.71 0.25-1.38 0.6-1.95 0.89-0.14-0.28-0.29-0.57-0.39-0.76 3.06-5.92 9.83-7.03 15.03-1.43 5.34-7.34 18.55-3.49 15.02 0.15"/>
			<path id="path17" style="fill-rule:evenodd;fill:#231f20" d="m446.72 194.13c-0.48 0.01-0.87-0.04-1.2 0.02-4.04-7.78-9.85-9.7-16.48-5.29-3.69-3.62-1.93-10.44-11.38-6.85-0.05 0.14-0.1 0.29-0.09 0.53-0.71 0.48-0.71 0.48-1.52 0.55-4.27-6.82-3.27-9.99-11.4-7.33-1.3-0.41-2.91-8.61-5.81-10.72-0.28 0.15-0.47 0.25-0.66 0.35-2.04-2.07-4.16 0.11-5.34 0.85-2.16-0.68-2.64-3.69-3.08-4.54-5.54-5.56-5.48-1.5-8.7-3.07-0.1-6.45-4.19-8.06-8.24-7.28-0.29-0.33-0.49-0.71-0.64-0.99 4.35-6 8.93 2.34 10.9 6.14 4.53-0.79 7.25 1.89 10 6.48 6.75-1.82 11.02 1.98 12.72 9.65 4.71-1.36 9.19 1.01 11.19 6.71 4.8-1.65 10.76 0.07 13.14 5.82 7.02-0.88 15.46-1.77 16.59 8.97"/>
			<path id="path19" style="fill-rule:evenodd;fill:#ffffff" d="m474.93 158.27c-6.91-2.19-14.05-15.46-9.49-20.12 0.41-1.3 1.83-2.52 3.92-2.88 6.27 3.25 8.01 16.56 5.91 23.19-0.15-0.05-0.29-0.1-0.34-0.19"/>
			<path id="path21" style="fill-rule:evenodd;fill:#ffffff" d="m219.14 268.18c-3.33 1-6.11 0.28-7.59 0.69-2.91 9.22-10.97 4.61-15.15 5.82-4.04 4.99-6.91 4.32-11.65 4.25-6.67 10.33-11.03 0.55-15.43 0.67-5.99 8.17-10.61-0.03-13.49-0.94-5.41 2.81-5.54 0.23-8.56-0.25-7.27 2.94-5.91-2.1-9.66-3.29-4.91 0.99-6.13-0.43-8.08-3.27-5.13-0.83-11.21-4.41-13.39-3.28-4.78 0.08-4.96-2.84-7.33-4.38-6.9 2.5-13.56-4.99-17.61-7.23-12.153-0.91-1.443-6.71 2.376-0.99 5.894 0.91 4.498-2.7 8.994 3.88 2.97-0.1 4.61-1.8 8.48 1.01 2.07 3.98 2.02 0.88 6.99 0.47-0.05 0.14-0.09 0.29-0.04 0.38 3.92 0.61 3.15 3.3 6.19 4.97 4.74-2.46 7.01-1.11 9.9 3.53 3.46 1.09 7.4-3.85 12.81 2.62 2.48-0.09 9.26-6.74 13.25 0.94 1.6-8.06 8.79-0.71 12.61-0.3 2.2-3.66 2.88-5.82 7.48-7.85 3.75 1.18 4.16 5.67 7.11-0.69 4.75-5.47 8.11-1.32 11.94-4.15 0.53-8.95 8.73-4.3 12.09-6.64-0.61-1.86-0.61-1.86-0.68-3.39 1.51-1.26 2.11-2.66 5.16-3.28 1.15 0.83 3.99 0.7 5.41 0.68 1.26-5.47 0.2-6.12 5.45-9.45 1.15 0.36 7.93-0.03 4.6-2.51 0.28-6.65 2.4-5.34 7.61-8.06 0.8-7.51-1.58-12.78 9.05-14.81 1.3-2.36 1.6-19.86 11.47-12.23 3.6 1.14 0.92-23.48 11.61-12.41 1.8-0.94 3.36-21.13 12.78-11.1 0.34-0.05 0.67-0.11 1.1-0.21 4.21 6.49 1.83 19.52-7.54 16.56-4.19-3.77-1.75 8.17-3.65 7.57-2.46 7.77-9.21 4.29-11.76 6.34 0.72 6.25-0.21 7.7-4.99 11.27-1.82-0.26-2.54-0.73-3.39-0.29-0.3 5.46 10.48 0.94 11.1-8.53 6.65-2.5 12.52-3.26 12.6-13.54 0.85-0.44 9.89-0.2 9.83-3.78 5.12-2.66 1.24-19.19-3.51-19.98-0.19 0.34-0.28 0.63-0.32 1.02-9.31-5.17-11.34 5.29-13.03 10.62-8.38-4.08-11.5 7.54-11.75 12.61-8.65-0.2-13.43 6.61-12.88 13.92-7.88 3.37-9.79 6.65-8.8 14.81-10.06 5.22-4.09 4.89-8.3 10.69-5.6-0.58-8.79 3.48-9.19 8.27-2.65 1.38-12.09 0.14-11.08 6.48-4.76 1.51-10.63 2.27-11.46 7.64-5.88-0.2-10.06 0.77-11.75 6.11-5.5 0.09-4.07-3.19-9.99 0.49-0.13 0.19-3.32 4.74-3.79 4.74-7.19-4.57-6.58-2-12.34-0.33-2.77-3.26-7.92-2.03-10.4-1.7 0.25 0.47-0.98 1.35-1.27 1.5-3.55-2.58-8.13-4.01-12.17-2.35-2.22-4.27-7.72-4.18-10.44-3.85-2.11-4.08-8.43-4.41-11.23-3.31-3.49-2.77-6.32-3.59-9.47-3.15-4.951-4.9-15.41-7.41-20.421-3.85-1.873-0.59-1.79-1.36-2.372-2.02-8.459 0.18-7.711-0.69-13.587 2.37-2.186-2.12-17.375 10.83-17.375 10.83-18.252 9.49-31.413 9.7-44.202-11.36-9.017-17.35-0.432-59.86 22.704-46.24 4.403 2.6 7.334 13.66 2.29 18.08-2.589-9.61-3.409-19.42-16.378-11-13.563 13.07-7.244 38.09 8.809 46.97 14.771 2.93 22.718 0.84 30.873-12.91 16.992-13.65 23.622 3.74 39.67-0.14-0.148-0.28-0.247-0.47-0.249-0.71-8.869-1.53-23.381-9.53-31.221-6.54-0.147-0.29-0.245-0.47-0.249-0.71 10.41-6.86 19.738-3.04 32.074 0.07 0.049 0.1 0.147 0.28 0.247 0.47 8.677 1.88 21.117 8.42 31.387 8.26 15.5 3.87 35.53 0.93 52.16-2.29l27.69-17.88c14.12-10.59 24.22-28.48 35.57-42.57 6.77-10.38 6.05-7.36 20.1-10.44 7.32 0.41 15.59-5.7 23.47-6.54 1.29-1.98 5.08-5.26 7.11-6.46-0.23 9.51-1.47 15.7 2.39 24.53-1.69 1.84 0.01 6.26 0.2 9.17-2.41 11.61-7.32 9.1-14.93 11.61-0.73 2.31 0.81 18.25-8.85 15.2-1.7-2.37-1.65-1.8-3.22-1.34 0.76 6.22 1.52 14.41-7.11 16.22-11.52-0.39-6.19 10.8-17.73 12.23-0.19-0.14-0.34-0.19-0.39-0.28-6.07 3.15-5.12 8.68-13.26 11.34-2.97-2.44-7.67 5.67-10.03 6.9"/>
			<path id="path23" style="fill-rule:evenodd;fill:#ffffff" d="m353.41 181.67c-18.05 0.95 2.33-21.69 6.55-8.95-0.88 4.8-2.67 6.93-6.55 8.95"/>
			<path id="path25" style="fill-rule:evenodd;fill:#ffffff" d="m340.55 184.74c-20.09 5.38-2.8-19.98 3.39-3.45-0.8 1.02-1.5 1.98-2.2 2.95-0.43 0.1-0.81 0.3-1.19 0.5"/>
			<path id="path27" style="fill-rule:evenodd;fill:#ffffff" d="m127.58 275.53c-0.2-0.14-0.39-0.28-0.53-0.33-0.01-0.24-0.01-0.48-0.01-0.72 0.14 0.29 0.34 0.67 0.54 1.05"/>
			<path id="path29" style="fill-rule:evenodd;fill:#231f20" d="m340.5 150.56c-10.69 1.7-9.28-9.27-0.9-11.7-0.1-0.18-0.06-0.33-0.01-0.47-9.66-3.05-5.79-12.53-3.52-4.68 4.04 4.29 5.64-0.52 5.15-4.48-0.34 0.05-0.53 0.15-0.72 0.25-0.49-0.71-0.93-1.32-1.36-1.94-5.37-0.58-5.69 0.19-7.44-4.8 0.51-0.64-0.11-0.91 1.8-0.94 0.74 1.18 1.47 2.36 2.3 3.5 3.69 0.37 5.5-2.86 2.73-6.11-0.58 0.05-1.15 0.11-1.72 0.17-0.15-0.53-0.21-1.1-0.27-1.67 3.7-1.93 6.19 1.48 5.69 5.84-2.22 5.24 6.27 6.97-2.07 14.56 0.1 0.19 0.24 0.47 0.39 0.76 5.75 0.63 5.26 8.95-0.05 11.71"/>
			<path id="path31" style="fill-rule:evenodd;fill:#ffffff" d="m339.84 148.13c-8.24 2.47-2.29-5.79-2.55-6.98 3.49 0.23 8.8 3.73 2.55 6.98"/>
			<path id="path33" style="fill-rule:evenodd;fill:#ffffff" d="m351.66 128.02c0.09-0.53 0.18-1.06 0.32-1.49 0.44 0.86 0.35 1.38-0.32 1.49"/>
			<path id="path35" style="fill-rule:evenodd;fill:#ffffff" d="m301.44 134.97c-6.52 2.05-8.13-0.12-11.16-4.56 0.14-0.2 0.42-0.35 0.71-0.49 3.82 3.19 6.26-5.79 10.24-8.1 5.37 1.07 4.38 10.98 0.21 13.15"/>
			<path id="path37" style="fill-rule:evenodd;fill:#ffffff" d="m333.66 115.04c-2.12 1.57-3.77 1.89-5.83-2.2-1.35-2.67 1.11-4.65 3.6-4.77 2.02-0.1 5.73 4.37 2.23 6.97"/>
			<path id="path39" style="fill-rule:evenodd;fill:#231f20" d="m240.3 159.15c-1.45-0.46-1.98-0.78-2.98-0.63-1.82-3.5-8.13-0.02-9.36 0.62-1.6 5.5-3.21 5.47-7.06 6.72-0.74-2.34 2.77-1.55 3.72-3.27 3.22-5.16 2.69-8.74 11.21-7.87 0.24 0.48 0.54 0.81 1.83 1.22 3.83-5.27-0.29-13.38 12.21-11.28 0.57-0.3 5.12-11.94 9.55-6.89-0.82 2.59-9.23 2.87-6.47 8.18 0.09-0.05 0.24-0.01 0.38 0.04-0.75 0.87-0.93 1.45-2.27 1.42-12.85-5.72-10.38 12.02-10.76 11.74"/>
			<path id="path41" style="fill-rule:evenodd;fill:#ffffff" d="m323.24 98.346c-0.91 0.11-1.81 0.218-2.63 0.281-2.09-2.406-3.4-4.011 0.29-5.933 0.97 0.462 1.93 0.926 2.9 1.39-0.1-0.19-0.11-0.429-0.11-0.668 0.14 0.045 0.34 0.186 0.63 0.275-0.15-0.284-0.3-0.568-0.45-0.852-0.57 0.296-0.53-0.325-0.58-0.657 0.86 0.031 1.82 0.495 2.03 1.352-0.29 0.146-0.52 0.39-0.76 0.633 0.63 0.516 1.35 0.982 2.08 1.451-0.55 1.729-2.55 2.284-3.4 2.728"/>
			<path id="path43" style="fill-rule:evenodd;fill:#231f20" d="m392.81 56.775c-1.86-3.499 1.98-8.013-5.5-9.665 3.01-2.094 4.82-1.682 6.6 0.184 5.23-7.205-5-15.984-11.78-1.107-2.19 2.461-2.01 9.189-1.45 11.112-7.73-1.691 0.8-14.889 3.05-19.167 15.57-12.432 18.65 10.176 9.08 18.643"/>
			<path id="path45" style="fill-rule:evenodd;fill:#231f20" d="m335.05 86.31c-4.25-2.613-3.59-9.697-3.99-13.467-2.74 1.431-4.92 6.29-6.7 8.42-0.48-0.229-0.96-0.462-1.3-0.649 2.12-4.956 8.7-18.25 13.38-18.992 0.29 0.567-0.9 22.623-1.05 24.873-0.15-0.047-0.29-0.092-0.34-0.185"/>
			<path id="path47" style="fill-rule:evenodd;fill:#ffffff" d="m314.92 94.844c-11.02 1.749-2.4-12.489 2.78-2.529-0.99 0.873-1.89 1.701-2.78 2.529"/>
			<path id="path49" style="fill-rule:evenodd;fill:#ffffff" d="m224.46 130.52c-2.45-0.77-1.93-1.4-2.72-2.68-4.22-0.7-5.93 2.72-9.08 0.14-3.3-6.35-6.22-0.14-10.37-6.05 5.5-5.63 7.14-17.32 13.8-6.81 0.73 0.47 2.15-0.03 2.09-0.85 0.76-0.39 0.95-0.73 3.06-0.38-0.05 0.15-0.1 0.29-0.05 0.38 1.81-0.93 3.73 2.77 4.77 4.76 1.15 0.36 9.01-6.98 11.91 1.15-4.91 3.52-9.2 7.79-13.41 10.34"/>
			<path id="path51" style="fill-rule:evenodd;fill:#ffffff" d="m78.858 204.25c-18.056 3.72-34.629-29.1-21.018-39.06 0.043-0.38 0.043-0.38-2.067-3.75 0.135-0.66 0.318-1.24 0.502-1.82 0.092-0.05 0.235 0 0.381 0.04-0.02-1.19 0.367-0.91 1.691-1.84 1.68 0.45 1.448 0.94 3.921 0.13 1.382-3.37 3.519-7.37 7.664-2.17 0.569-0.3 1.186-0.5 1.899-0.75 2.003-6.34 10.697 5.52 12.322 5.4 1.059-2.6 3.293-3.39 6.792-2.69-0.46 4.22 1.226 8.16 3.061 12.38-6.544 3.4-17.633-2.64-22.181-6.3-0.857-2.8-0.857-2.8-1.545-3.89-2.346-0.35-4.184 4.46-4.838 5.29-2.196 0.18-2.627 0.27-3.331 1 1.094 2.81 3.043 8.18 0.46 11.32 0.731 3.96 1.56 7.87 2.433 11.87 3 2.29 6.001 4.59 9.048 6.98 5.879-3.05 1.772-9.11 3.55-11.48-0.643-1.23 0.624-2.97 2.149-3.05 6.21 5.69 6.479 16.87-0.893 22.39"/>
			<path id="path53" style="fill-rule:evenodd;fill:#ffffff" d="m240.42 118.13c0-0.47 0.04-0.85 0.08-1.24-0.34-0.19-0.68-0.37-0.97-0.46 0.3 0.8 0.3 0.8 0.12 1.14-1.44-0.45-1.64-1.07-2.37-1.78 0.14-0.19 0.28-0.39 0.51-0.63-0.49-0.94-0.73-1.42-1.55-1.84-0.24 0.25-0.47 0.49-0.62 0.68-0.24 0.01-0.38-0.04-0.52-0.09-0.23 0.25-0.38 0.44-0.52 0.63-4.5-0.55-4.87 0.37-7.62 1.56-3.08-4.07-6.1-5.02-10.15-3.76-0.92-1.09-1.7-2.13-2.48-3.17-1.91 0.03-3.07-0.57-4.55-0.41-0.24-0.23-0.44-0.37-0.53-0.56 0.52-12.198-3.94-19.155-13.55-25.841-1.69-0.69-6.36-2.722-6.78-2.142-13.11-1.374-18.64 6.313-28.25 11.911-1.13-2.18-0.21-4.344-0.1-6.211 0.15 0.045 0.29 0.09 0.53 0.088-4.54-8.727 14.8-16.483 21.73-16.591 6.95 1.09 15.78 3.242 21.81 9.75 0.75-0.396 5.31 3.738 6.72 5.054 15.57 11.662 22.8 18.622 43.82 21.062 0.74 1.43-11.78 10.47-13.16 11.3-0.04 0.14-0.09 0.29-0.08 0.53-0.57 0.29-1.09 0.68-1.52 1.02"/>
			<path id="path55" style="fill-rule:evenodd;fill:#ffffff" d="m113.68 168.82c-0.62 0.2-1.14 0.35-1.61 0.59-0.15-0.28-0.25-0.47-0.25-0.71 0.04-0.15 0.18-0.34 0.32-0.53-0.19-0.14-0.24-0.23-0.29-0.33-0.14 0.19-0.28 0.39-0.37 0.68-1.7-1.89-3.45-3.39-4.24-4.91 0.1-0.05-0.57-3.19 0.08-4.02 4.04 1.28 7.17-0.35 7.68 8.06-0.52 0.39-0.94 0.73-1.32 1.17"/>
			<path id="path57" style="fill-rule:evenodd;fill:#ffffff" d="m189.3 125.91c-0.42 0.1-0.76 0.15-1.1 0.21-1.01-0.8-1.73-1.03-1.65-2.03-0.52 0.15-1.25-0.08-1.68-0.46-1.52 0.79-1.57 0.7-2.41 1.62-5.41-0.2-4.21-3.23-6.23-3.87-4.85 1.8-5.51-0.63-5.37-4.08-4.45-3.22-3.83-0.18-5.3-6.03 3.22-1.68 6.19-4.31 10.09-5.85 13.73 19.24 28.54-9.045 4.08-7.9-6.35 3.3-18.38 13.53-24.94 9.95-20.4 0.36-34.74-23.745-14.8-35.67 1.57-0.215 9.21-1.05 10.69 1.792-0.96 3.027-19.24-1.325-14.45 17.386 12.71 24.462 31.87-3.315 45.76-8.121 10.02-1.111 14.89 1.777 21.39 10.805 0.49 0.949 3.55 6.828 2.04 8.338 0.16 1.24 0.47 2.52 0.78 3.81-0.89 1.06-1.36 1.55-1.73 2.7 4.19 8.06-8.47 8.74-7.49 12.69-2.38 4.24-4.94-0.69-6.35 3.78-0.48 0.24-0.9 0.59-1.33 0.93"/>
			<path id="path59" style="fill-rule:evenodd;fill:#231f20" d="m345.49 44.511c-1.65 1.573 9.95-19.216 4.42-22.772-0.54 1.729-1.1 2.981-0.54 5.216-0.28 0.149-0.56 0.299-0.71 0.49-2.16-4.174-3.3-6.591 1.45-8.818 8.63 4.858-0.89 23.945-4.62 25.884"/>
			<path id="path61" style="fill-rule:evenodd;fill:#ffffff" d="m134.36 152.05c-2.9 1.14-5.38 1.47-7.53 1.5-4.69-9 17.01-24.73 15.09-6.87-2.69 2.24-4.96 3.9-7.56 5.37"/>
			<path id="path63" style="fill-rule:evenodd;fill:#231f20" d="m365.75 29.043c-9.41 0.195-6.63-23.891 4.48-13.645 1.03 5.002 0.45 11.082-4.48 13.645"/>
			<path id="path65" style="fill-rule:evenodd;fill:#ffffff" d="m111.66 155.66c-15.349-3.35 5.72-19.84 2.74-1.92-0.99 0.64-1.89 1.23-2.74 1.92"/>
			<path id="path67" style="fill-rule:evenodd;fill:#ffffff" d="m187.47 109.4c-12.23-2.44-7.79-11.973 0.39-5.27 1.34 2.56 1.92 3.46-0.39 5.27"/>
			<path id="path69" style="fill-rule:evenodd;fill:#ffffff" d="m116.24 143.16c-7.3 0.78-5.54-6.28-7.15-8.45 0.47-0.25 8.49-4.05 7.49-0.88 4.05 2.23 1.98 7.52-0.34 9.33"/>
			<path id="path71" style="fill-rule:evenodd;fill:#ffffff" d="m90.947 154.73c-4.058 0.31-5.062 0.22-7.623 1.56-1.267-1.51-2.483-2.93-3.701-4.35-0.191 0.11-0.285 0.15-0.33 0.3-4.462-0.94-6.231-0.86-9.03 0.24-8.719-4.27-6.437 1.29-10.515 3.41-8.355-2.64-4.544 8.86-6.454 8.89-0.047 0.15 0.003 0.24 0.102 0.43-0.99 0.88-0.99 0.88-1.375 0.84-6.358-12.24 8.222-21.5 18.939-20.81 5.942 1.01 12.953 2.91 19.865 4.86 0.255 0.95 0.92 3.62 0.122 4.63"/>
			<path id="path73" style="fill-rule:evenodd;fill:#ffffff" d="m121.7 131.17c-3.84-0.9-5.05-1.6-4.43-5.05 0.1-0.05 0.24 0 0.48-0.01 0.47-0.72 1.03-1.49 1.59-2.27 1.34 0.27 2.68 0.53 4.08 0.89 0.39 1 0.79 2 1.19 3-0.47 0.72-0.89 1.3-0.83 2.11-0.76 0.4-1.47 0.89-2.08 1.33"/>
			<path id="path75" style="fill-rule:evenodd;fill:#ffffff" d="m131.39 124.32c-9.15 1.63-5.75-9.9 1.39-2.89 0.07 1.3-0.1 2.59-1.39 2.89"/>
		</g>
	<metadata><rdf:RDF><cc:Work><dc:format>image/svg+xml</dc:format><dc:type rdf:resource="http://purl.org/dc/dcmitype/StillImage"/><cc:license rdf:resource="http://creativecommons.org/licenses/publicdomain/"/><dc:publisher><cc:Agent rdf:about="http://openclipart.org/"><dc:title>Openclipart</dc:title></cc:Agent></dc:publisher><dc:title>Coloring Book Octopus</dc:title><dc:date>2007-09-16T20:08:36</dc:date><dc:description>Extracted from "The Washington State Coloring Book", created by the WA state legislature with taxpayer funds. The coloring book carries no copyright notice, but has the statement "feel free to make copies of this document" on the cover.</dc:description><dc:source>https://openclipart.org/detail/5515/coloring-book-octopus-by-fundraw_dot_com</dc:source><dc:creator><cc:Agent><dc:title>FunDraw_dot_com</dc:title></cc:Agent></dc:creator><dc:subject><rdf:Bag><rdf:li>animal</rdf:li><rdf:li>colouring book</rdf:li><rdf:li>contour</rdf:li><rdf:li>externalsource</rdf:li><rdf:li>line art</rdf:li><rdf:li>octopus</rdf:li><rdf:li>sea creature</rdf:li></rdf:Bag></dc:subject></cc:Work><cc:License rdf:about="http://creativecommons.org/licenses/publicdomain/"><cc:permits rdf:resource="http://creativecommons.org/ns#Reproduction"/><cc:permits rdf:resource="http://creativecommons.org/ns#Distribution"/><cc:permits rdf:resource="http://creativecommons.org/ns#DerivativeWorks"/></cc:License></rdf:RDF></metadata></svg>
